<svg xmlns="http://www.w3.org/2000/svg" width="100" height="100" viewBox="0 0 100 100"><rect width="100%" height="100%" fill="#DDDDDD"/><path fill="#999999" d="M25.805 45.03h1.66v10.12h-.96q-.23 0-.38-.07-.15-.08-.29-.25l-5.28-6.75q.04.46.04.85v6.22h-1.66V45.03h.99q.12 0 .2.01.09.01.16.04.06.03.13.09.06.06.14.16l5.3 6.78q-.02-.25-.03-.49-.02-.24-.02-.44v-6.15Zm6.82 2.83q.8 0 1.46.25.65.26 1.11.74.47.48.72 1.16.25.69.25 1.54 0 .85-.25 1.54-.25.68-.72 1.16-.46.49-1.11.75-.66.25-1.46.25-.8 0-1.46-.25-.66-.26-1.12-.75-.47-.48-.73-1.16-.25-.69-.25-1.54 0-.85.25-1.54.26-.68.73-1.16.46-.48 1.12-.74.66-.25 1.46-.25Zm0 6.06q.9 0 1.33-.6.43-.6.43-1.76 0-1.16-.43-1.77-.43-.61-1.33-.61-.91 0-1.35.61-.43.61-.43 1.77 0 1.15.43 1.76.44.6 1.35.6Zm10.43-3.8h1.4q.52 0 .91-.13.38-.13.64-.37.25-.25.38-.59.12-.35.12-.78 0-.4-.12-.73-.13-.33-.38-.56-.25-.23-.64-.35-.38-.13-.91-.13h-1.4v3.64Zm-1.89-5.09h3.29q1.02 0 1.76.24.74.23 1.22.66.49.43.72 1.02.24.6.24 1.3 0 .74-.25 1.35-.24.61-.73 1.06-.49.44-1.23.68-.74.25-1.73.25h-1.4v3.56h-1.89V45.03Zm9.92 3.37.11.81q.33-.64.79-1.01.47-.37 1.1-.37.49 0 .79.22l-.11 1.3q-.03.12-.1.18-.07.05-.18.05-.1 0-.31-.04-.21-.03-.4-.03-.29 0-.51.08-.23.09-.4.24-.18.16-.32.38-.14.23-.26.52v4.42h-1.72v-7.18h1.01q.27 0 .37.09.11.1.14.34Zm6.88-.54q.79 0 1.45.25.65.26 1.12.74.46.48.72 1.16.25.69.25 1.54 0 .85-.25 1.54-.26.68-.72 1.16-.47.49-1.12.75-.66.25-1.45.25-.81 0-1.47-.25-.66-.26-1.12-.75-.47-.48-.72-1.16-.26-.69-.26-1.54 0-.85.26-1.54.25-.68.72-1.16.46-.48 1.12-.74.66-.25 1.47-.25Zm0 6.06q.89 0 1.32-.6.43-.6.43-1.76 0-1.16-.43-1.77-.43-.61-1.32-.61-.91 0-1.35.61-.44.61-.44 1.77 0 1.15.44 1.76.44.6 1.35.6Zm7.09 1.23h-1.73v-5.88l-.62-.1q-.2-.04-.32-.14-.13-.1-.13-.29v-.71h1.07v-.53q0-.62.19-1.11.19-.49.53-.83.35-.34.85-.53.49-.18 1.12-.18.49 0 .92.14l-.04.86q0 .1-.05.16t-.13.09q-.08.03-.19.04-.1.01-.22.01-.31 0-.55.07-.24.07-.41.23-.17.17-.25.44-.09.27-.09.67v.47h1.87v1.23h-1.82v5.89Zm2.85-7.18h1.73v7.18h-1.73v-7.18Zm1.97-2.1q0 .23-.09.42-.09.2-.24.35-.15.14-.36.23-.2.09-.43.09-.22 0-.42-.09-.2-.09-.35-.23-.15-.15-.23-.35-.09-.19-.09-.42 0-.23.09-.43.08-.2.23-.35.15-.15.35-.23.2-.09.42-.09.23 0 .43.09.21.08.36.23.15.15.24.35.09.2.09.43Zm1.55-1.12h1.73v10.4h-1.73v-10.4Zm4.82 5.98h3.26q0-.33-.09-.63-.1-.3-.29-.52-.19-.23-.48-.36-.29-.12-.67-.12-.75 0-1.18.42-.43.43-.55 1.21Zm4.41 1.05h-4.45q.05.55.2.95.15.4.41.67.25.26.6.39.34.13.76.13t.73-.1q.3-.1.53-.22l.4-.21q.17-.1.33-.1.22 0 .32.16l.5.63q-.29.34-.65.56-.35.23-.74.37-.39.13-.79.19-.4.05-.78.05-.75 0-1.4-.24-.64-.25-1.12-.74-.47-.48-.74-1.2-.28-.72-.28-1.67 0-.73.24-1.38.24-.65.68-1.12.45-.48 1.09-.76.64-.28 1.44-.28.68 0 1.26.21.57.22.98.64.42.41.65 1.02.24.6.24 1.38 0 .39-.09.53-.08.14-.32.14Z"/></svg>