<svg xmlns="http://www.w3.org/2000/svg" width="192" height="200" fill="none" viewBox="0 0 192 200"><g id="OTP 1"><g id="Page-1"><g id="OTP"><g id="undraw_confirmed_81ex-(1)"><path id="Oval" fill-rule="evenodd" stroke="#3AD29F" stroke-dasharray="1.84 1.84" stroke-width=".306" d="M95.7081 182.473C138.925 182.473 173.959 147.438 173.959 104.222C173.959 61.0047 138.925 25.9705 95.7081 25.9705C52.4912 25.9705 17.457 61.0047 17.457 104.222C17.457 147.438 52.4912 182.473 95.7081 182.473Z" clip-rule="evenodd"/><path id="Oval_2" fill-rule="evenodd" stroke="#3AD29F" stroke-dasharray="1.84 1.84" stroke-width=".306" d="M95.7082 199.071C148.092 199.071 190.558 156.606 190.558 104.221C190.558 51.8374 148.092 9.3717 95.7082 9.3717C43.3241 9.3717 0.858398 51.8374 0.858398 104.221C0.858398 156.606 43.3241 199.071 95.7082 199.071Z" clip-rule="evenodd"/><path id="Path" fill="url(#paint0_linear_392_1711)" d="M159.189 134.439C159.192 123.396 150.79 114.165 139.796 113.131C128.801 112.097 118.826 119.6 116.77 130.45L51.0103 128.666L51.7322 139.964C51.7322 139.964 42.3552 161.6 91.6376 167.365V189.233H148.611V152.874C155.157 149.041 159.183 142.025 159.189 134.439Z"/><path id="Path_2" fill="#FFCBB4" d="M53.9901 140.438C53.9901 140.438 45.011 161.158 92.2067 166.685V187.637H146.769V132.152L53.2893 129.618L53.9901 140.438Z"/><path id="Path_3" fill="url(#paint1_linear_392_1711)" d="M81.2595 53.9749C78.2978 58.6484 72.1178 60.0527 67.4272 57.1181L38.1318 37.8135C33.4583 34.8518 32.054 28.6718 34.9886 23.9812C37.9499 19.3141 44.122 17.9105 48.8103 20.838L78.1058 40.1426C82.783 43.1008 84.1922 49.2816 81.2595 53.9749Z"/><path id="Path_4" fill="#FFCBB4" d="M79.6364 52.921C76.8835 57.2651 71.1391 58.5705 66.779 55.8429L39.5387 37.8846C35.1946 35.1317 33.8891 29.3873 36.6168 25.0272C39.3698 20.6831 45.1142 19.3777 49.4742 22.1053L76.7093 40.053C81.0617 42.8047 82.3703 48.5573 79.6364 52.921Z"/><path id="Oval_3" fill="#FFCBB4" d="M136.412 155.635C147.728 155.635 156.902 146.462 156.902 135.145C156.902 123.829 147.728 114.655 136.412 114.655C125.095 114.655 115.922 123.829 115.922 135.145C115.922 146.462 125.095 155.635 136.412 155.635Z"/><path id="Rectangle" fill="url(#paint2_linear_392_1711)" d="M132.723 0H54.23C52.4475 0 51.0024 1.44501 51.0024 3.22753V150.102C51.0024 151.885 52.4475 153.33 54.23 153.33H132.723C134.506 153.33 135.951 151.885 135.951 150.102V3.22753C135.951 1.44501 134.506 0 132.723 0Z"/><path id="Rectangle_2" fill="#fff" d="M131.206 2.07349H55.7422C53.7574 2.07349 52.1484 3.68246 52.1484 5.66724V147.668C52.1484 149.653 53.7574 151.262 55.7422 151.262H131.206C133.191 151.262 134.799 149.653 134.799 147.668V5.66724C134.799 3.68246 133.191 2.07349 131.206 2.07349Z"/><path id="Path_5" fill="#E9ECFF" d="M114.238 5.81482C113.744 9.08399 110.939 11.504 107.633 11.5137H79.0884C75.7831 11.5027 72.9797 9.08301 72.4858 5.81482H57.3625C56.5298 5.81482 55.731 6.14442 55.1419 6.73297C54.5529 7.32153 54.2219 8.12008 54.2219 8.95277V144.377C54.2219 145.21 54.5515 146.009 55.1401 146.598C55.7286 147.187 56.5272 147.518 57.3599 147.518H129.588C130.421 147.518 131.22 147.188 131.809 146.6C132.398 146.011 132.729 145.213 132.729 144.38V8.9554C132.729 8.12271 132.399 7.32388 131.81 6.73484C131.222 6.14579 130.423 5.81482 129.591 5.81482H114.238Z"/><path id="Rectangle_3" fill="#DBDBDB" d="M102.274 7.59851H84.9085C84.6175 7.59851 84.3816 7.83443 84.3816 8.12545V8.22294C84.3816 8.51396 84.6175 8.74988 84.9085 8.74988H102.274C102.565 8.74988 102.801 8.51396 102.801 8.22294V8.12545C102.801 7.83443 102.565 7.59851 102.274 7.59851Z"/><path id="Oval_4" fill="#DBDBDB" d="M106.713 8.91803C107.187 8.91803 107.572 8.53373 107.572 8.05966C107.572 7.5856 107.187 7.20129 106.713 7.20129C106.239 7.20129 105.855 7.5856 105.855 8.05966C105.855 8.53373 106.239 8.91803 106.713 8.91803Z"/><path id="Path_6" fill="url(#paint3_linear_392_1711)" d="M149.657 138.76C143.71 140.135 139.629 136.257 138.254 130.313L124.59 79.5763C123.231 73.6094 126.944 67.6643 132.903 66.2684C138.87 64.9089 144.815 68.6223 146.211 74.5809L157.361 126.627C158.736 132.574 155.601 137.385 149.657 138.76Z"/><path id="Rectangle_4" fill="#FFCBB4" d="M144.677 75.8229C143.518 70.8054 138.511 67.6778 133.493 68.8371C128.476 69.9964 125.348 75.0036 126.508 80.0211L139.072 134.4C140.231 139.417 145.238 142.545 150.256 141.385C155.273 140.226 158.401 135.219 157.242 130.201L144.677 75.8229Z"/><path id="Rectangle_5" fill="url(#paint4_linear_392_1711)" d="M156.815 180.781H78.8276V198.961H156.815V180.781Z"/><path id="Rectangle_6" fill="#4D8AF0" d="M154.707 182.889H80.9353V197.116H154.707V182.889Z"/><path id="Path_7" fill="url(#paint5_linear_392_1711)" d="M69.8879 108.403C66.9622 113.021 60.8561 114.409 56.2216 111.509L36.5746 98.7966C31.9566 95.8709 30.5687 89.7648 33.4682 85.1303C36.3939 80.5124 42.5001 79.1245 47.1345 82.024L66.7816 94.7365C71.3995 97.6622 72.7874 103.768 69.8879 108.403Z"/><path id="Path_8" fill="url(#paint6_linear_392_1711)" d="M64.9557 135.311C62.0039 139.971 55.8422 141.372 51.1656 138.446L38.9959 129.573C34.3355 126.621 32.9346 120.459 35.8605 115.783C38.8123 111.122 44.9741 109.721 49.6507 112.647L61.8204 121.524C66.4791 124.475 67.8799 130.635 64.9557 135.311Z"/><g id="Group" opacity=".5"><path id="Oval_5" fill="url(#paint7_linear_392_1711)" d="M93.474 100.364C106.561 100.364 117.171 89.7549 117.171 76.6676C117.171 63.5803 106.561 52.9709 93.474 52.9709C80.3867 52.9709 69.7773 63.5803 69.7773 76.6676C69.7773 89.7549 80.3867 100.364 93.474 100.364Z"/></g><path id="Oval_6" fill="#69F0AE" d="M93.474 98.9705C105.792 98.9705 115.777 88.9852 115.777 76.6676C115.777 64.3501 105.792 54.3647 93.474 54.3647C81.1565 54.3647 71.1711 64.3501 71.1711 76.6676C71.1711 88.9852 81.1565 98.9705 93.474 98.9705Z"/><path id="Path_9" fill="#fff" d="M83.7941 73.6904L92.1567 81.3575L104.005 63.9341L108.189 67.4198L92.1567 88.3289L80.3083 75.0868L83.7941 73.6904Z"/><path id="Path_10" fill="#FFCBB4" d="M63.973 134.65C61.2201 138.994 55.4757 140.299 51.1156 137.572L39.7653 129.309C35.4211 126.556 34.1157 120.812 36.8434 116.452C39.5963 112.108 45.3407 110.802 49.7008 113.53L61.0485 121.808C65.3839 124.56 66.6895 130.292 63.973 134.65Z"/><path id="Path_11" fill="#FFCBB4" d="M68.8078 107.705C66.0548 112.049 60.3104 113.354 55.9504 110.627L37.4652 98.6649C33.1211 95.9119 31.8157 90.1675 34.5433 85.8075C37.2963 81.4634 43.0407 80.1579 47.4007 82.8856L65.8859 94.8472C70.23 97.6002 71.5354 103.345 68.8078 107.705Z"/><path id="Path_12" fill="url(#paint8_linear_392_1711)" d="M74.9677 81.6209C72.0276 86.2591 65.8939 87.6527 61.2382 84.7404L36.3401 68.529C31.7019 65.5889 30.3083 59.4552 33.2206 54.7995C36.1608 50.1613 42.2944 48.7676 46.9501 51.68L71.8482 67.8914C76.4864 70.8315 77.8801 76.9652 74.9677 81.6209Z"/><path id="Path_13" fill="#FFCBB4" d="M73.6452 80.7778C70.8922 85.1219 65.1478 86.4274 60.7878 83.6997L37.4679 68.5159C33.1238 65.7629 31.8183 60.0185 34.546 55.6584C37.299 51.3143 43.0433 50.0089 47.4034 52.7365L70.7206 67.9204C75.0657 70.6725 76.3723 76.4171 73.6452 80.7778Z"/></g></g></g></g><defs><linearGradient id="paint0_linear_392_1711" x1="105.104" x2="105.104" y1="189.246" y2="113.04" gradientUnits="userSpaceOnUse"><stop stop-color="gray" stop-opacity=".25"/><stop offset=".54" stop-color="gray" stop-opacity=".12"/><stop offset="1" stop-color="gray" stop-opacity=".1"/></linearGradient><linearGradient id="paint1_linear_392_1711" x1="58.121" x2="58.121" y1="58.654" y2="19.307" gradientUnits="userSpaceOnUse"><stop stop-color="gray" stop-opacity=".25"/><stop offset=".54" stop-color="gray" stop-opacity=".12"/><stop offset="1" stop-color="gray" stop-opacity=".1"/></linearGradient><linearGradient id="paint2_linear_392_1711" x1="93.477" x2="93.477" y1="153.327" y2="-.003" gradientUnits="userSpaceOnUse"><stop stop-color="gray" stop-opacity=".25"/><stop offset=".54" stop-color="gray" stop-opacity=".12"/><stop offset="1" stop-color="gray" stop-opacity=".1"/></linearGradient><linearGradient id="paint3_linear_392_1711" x1="140.994" x2="140.994" y1="139.034" y2="65.984" gradientUnits="userSpaceOnUse"><stop stop-color="gray" stop-opacity=".25"/><stop offset=".54" stop-color="gray" stop-opacity=".12"/><stop offset="1" stop-color="gray" stop-opacity=".1"/></linearGradient><linearGradient id="paint4_linear_392_1711" x1="117.827" x2="117.827" y1="198.955" y2="180.776" gradientUnits="userSpaceOnUse"><stop stop-color="gray" stop-opacity=".25"/><stop offset=".54" stop-color="gray" stop-opacity=".12"/><stop offset="1" stop-color="gray" stop-opacity=".1"/></linearGradient><linearGradient id="paint5_linear_392_1711" x1="51.674" x2="51.674" y1="113.024" y2="80.512" gradientUnits="userSpaceOnUse"><stop stop-color="gray" stop-opacity=".25"/><stop offset=".54" stop-color="gray" stop-opacity=".12"/><stop offset="1" stop-color="gray" stop-opacity=".1"/></linearGradient><linearGradient id="paint6_linear_392_1711" x1="50.41" x2="50.41" y1="139.975" y2="111.117" gradientUnits="userSpaceOnUse"><stop stop-color="gray" stop-opacity=".25"/><stop offset=".54" stop-color="gray" stop-opacity=".12"/><stop offset="1" stop-color="gray" stop-opacity=".1"/></linearGradient><linearGradient id="paint7_linear_392_1711" x1="93.474" x2="93.474" y1="100.364" y2="52.968" gradientUnits="userSpaceOnUse"><stop stop-color="gray" stop-opacity=".25"/><stop offset=".54" stop-color="gray" stop-opacity=".12"/><stop offset="1" stop-color="gray" stop-opacity=".1"/></linearGradient><linearGradient id="paint8_linear_392_1711" x1="54.093" x2="54.093" y1="86.271" y2="50.168" gradientUnits="userSpaceOnUse"><stop stop-color="gray" stop-opacity=".25"/><stop offset=".54" stop-color="gray" stop-opacity=".12"/><stop offset="1" stop-color="gray" stop-opacity=".1"/></linearGradient></defs></svg>