<svg xmlns="http://www.w3.org/2000/svg" width="20" height="20" fill="none" viewBox="0 0 20 20"><path id="Vector" fill="#1A1B1F" d="M12.72 6.78998L8.43 11.09L6.78 9.43998C6.69036 9.33528 6.58004 9.25029 6.45597 9.19028C6.33191 9.13028 6.19678 9.09648 6.05906 9.09118C5.92134 9.08589 5.78401 9.10909 5.65568 9.15938C5.52736 9.20959 5.41081 9.28588 5.31335 9.38328C5.2159 9.48078 5.13964 9.59739 5.08937 9.72569C5.03909 9.85398 5.01589 9.99128 5.02121 10.1291C5.02653 10.2668 5.06026 10.4019 5.12028 10.526C5.1803 10.65 5.26532 10.7604 5.37 10.85L7.72 13.21C7.81344 13.3027 7.92426 13.376 8.0461 13.4258C8.1679 13.4755 8.2984 13.5008 8.43 13.5C8.6923 13.4989 8.9437 13.3947 9.13 13.21L14.13 8.20998C14.2237 8.11698 14.2981 8.00638 14.3489 7.88456C14.3997 7.7627 14.4258 7.63199 14.4258 7.49998C14.4258 7.36797 14.3997 7.23727 14.3489 7.11541C14.2981 6.99355 14.2237 6.88294 14.13 6.78998C13.9426 6.60373 13.6892 6.4992 13.425 6.4992C13.1608 6.4992 12.9074 6.60373 12.72 6.78998ZM10 -1.52588e-05C8.0222 -1.52588e-05 6.08879 0.586475 4.4443 1.68528C2.79981 2.7841 1.51809 4.34588 0.761211 6.17315C0.00433075 8.00039 -0.193699 10.0111 0.192151 11.9509C0.578001 13.8907 1.53041 15.6725 2.92894 17.0711C4.32746 18.4696 6.10929 19.422 8.0491 19.8079C9.9889 20.1937 11.9996 19.9957 13.8268 19.2388C15.6541 18.4819 17.2159 17.2002 18.3147 15.5557C19.4135 13.9112 20 11.9778 20 9.99998C20 8.68678 19.7413 7.3864 19.2388 6.17315C18.7363 4.95989 17.9997 3.8575 17.0711 2.92891C16.1425 2.00033 15.0401 1.26373 13.8268 0.761185C12.6136 0.258645 11.3132 -1.52588e-05 10 -1.52588e-05ZM10 18C8.4178 18 6.87104 17.5308 5.55544 16.6518C4.23985 15.7727 3.21447 14.5233 2.60897 13.0615C2.00347 11.5997 1.84504 9.99108 2.15372 8.43928C2.4624 6.88741 3.22433 5.46196 4.34315 4.34313C5.46197 3.22431 6.88743 2.46238 8.4393 2.1537C9.9911 1.84502 11.5997 2.00344 13.0615 2.60894C14.5233 3.21445 15.7727 4.23982 16.6518 5.55542C17.5308 6.87101 18 8.41768 18 9.99998C18 12.1217 17.1572 14.1566 15.6569 15.6569C14.1566 17.1571 12.1217 18 10 18Z"/></svg>